<?xml version="1.0" encoding="UTF-8"?>
<!DOCTYPE svg PUBLIC "-//W3C//DTD SVG 1.1//EN" "http://www.w3.org/Graphics/SVG/1.1/DTD/svg11.dtd">
<svg version="1.2" width="210mm" height="297mm" viewBox="0 0 21000 29700" preserveAspectRatio="xMidYMid" fill-rule="evenodd" stroke-width="28.222" stroke-linejoin="round" xmlns="http://www.w3.org/2000/svg" xmlns:ooo="http://xml.openoffice.org/svg/export" xmlns:xlink="http://www.w3.org/1999/xlink" xmlns:presentation="http://sun.com/xmlns/staroffice/presentation" xmlns:smil="http://www.w3.org/2001/SMIL20/" xmlns:anim="urn:oasis:names:tc:opendocument:xmlns:animation:1.0" xml:space="preserve">
 <defs class="ClipPathGroup">
  <clipPath id="presentation_clip_path" clipPathUnits="userSpaceOnUse">
   <rect x="0" y="0" width="21000" height="29700"/>
  </clipPath>
  <clipPath id="presentation_clip_path_shrink" clipPathUnits="userSpaceOnUse">
   <rect x="21" y="29" width="20958" height="29641"/>
  </clipPath>
 </defs>
 <defs class="TextShapeIndex">
  <g ooo:slide="id1" ooo:id-list="id3 id4 id5 id6 id7 id8 id9 id10 id11 id12 id13 id14 id15 id16 id17 id18 id19 id20 id21 id22 id23 id24 id25 id26 id27 id28 id29 id30 id31 id32 id33 id34 id35 id36"/>
 </defs>
 <defs class="EmbeddedBulletChars">
  <g id="bullet-char-template-57356" transform="scale(0.00048828125,-0.00048828125)">
   <path d="M 580,1141 L 1163,571 580,0 -4,571 580,1141 Z"/>
  </g>
  <g id="bullet-char-template-57354" transform="scale(0.00048828125,-0.00048828125)">
   <path d="M 8,1128 L 1137,1128 1137,0 8,0 8,1128 Z"/>
  </g>
  <g id="bullet-char-template-10146" transform="scale(0.00048828125,-0.00048828125)">
   <path d="M 174,0 L 602,739 174,1481 1456,739 174,0 Z M 1358,739 L 309,1346 659,739 1358,739 Z"/>
  </g>
  <g id="bullet-char-template-10132" transform="scale(0.00048828125,-0.00048828125)">
   <path d="M 2015,739 L 1276,0 717,0 1260,543 174,543 174,936 1260,936 717,1481 1274,1481 2015,739 Z"/>
  </g>
  <g id="bullet-char-template-10007" transform="scale(0.00048828125,-0.00048828125)">
   <path d="M 0,-2 C -7,14 -16,27 -25,37 L 356,567 C 262,823 215,952 215,954 215,979 228,992 255,992 264,992 276,990 289,987 310,991 331,999 354,1012 L 381,999 492,748 772,1049 836,1024 860,1049 C 881,1039 901,1025 922,1006 886,937 835,863 770,784 769,783 710,716 594,584 L 774,223 C 774,196 753,168 711,139 L 727,119 C 717,90 699,76 672,76 641,76 570,178 457,381 L 164,-76 C 142,-110 111,-127 72,-127 30,-127 9,-110 8,-76 1,-67 -2,-52 -2,-32 -2,-23 -1,-13 0,-2 Z"/>
  </g>
  <g id="bullet-char-template-10004" transform="scale(0.00048828125,-0.00048828125)">
   <path d="M 285,-33 C 182,-33 111,30 74,156 52,228 41,333 41,471 41,549 55,616 82,672 116,743 169,778 240,778 293,778 328,747 346,684 L 369,508 C 377,444 397,411 428,410 L 1163,1116 C 1174,1127 1196,1133 1229,1133 1271,1133 1292,1118 1292,1087 L 1292,965 C 1292,929 1282,901 1262,881 L 442,47 C 390,-6 338,-33 285,-33 Z"/>
  </g>
  <g id="bullet-char-template-9679" transform="scale(0.00048828125,-0.00048828125)">
   <path d="M 813,0 C 632,0 489,54 383,161 276,268 223,411 223,592 223,773 276,916 383,1023 489,1130 632,1184 813,1184 992,1184 1136,1130 1245,1023 1353,916 1407,772 1407,592 1407,412 1353,268 1245,161 1136,54 992,0 813,0 Z"/>
  </g>
  <g id="bullet-char-template-8226" transform="scale(0.00048828125,-0.00048828125)">
   <path d="M 346,457 C 273,457 209,483 155,535 101,586 74,649 74,723 74,796 101,859 155,911 209,963 273,989 346,989 419,989 480,963 531,910 582,859 608,796 608,723 608,648 583,586 532,535 482,483 420,457 346,457 Z"/>
  </g>
  <g id="bullet-char-template-8211" transform="scale(0.00048828125,-0.00048828125)">
   <path d="M -4,459 L 1135,459 1135,606 -4,606 -4,459 Z"/>
  </g>
  <g id="bullet-char-template-61548" transform="scale(0.00048828125,-0.00048828125)">
   <path d="M 173,740 C 173,903 231,1043 346,1159 462,1274 601,1332 765,1332 928,1332 1067,1274 1183,1159 1299,1043 1357,903 1357,740 1357,577 1299,437 1183,322 1067,206 928,148 765,148 601,148 462,206 346,322 231,437 173,577 173,740 Z"/>
  </g>
 </defs>
 <g>
  <g id="id2" class="Master_Slide">
   <g id="bg-id2" class="Background"/>
   <g id="bo-id2" class="BackgroundObjects"/>
  </g>
 </g>
 <g class="SlideGroup">
  <g>
   <g id="container-id1">
    <g id="id1" class="Slide" clip-path="url(#presentation_clip_path)">
     <g class="Page">
      <g class="com.sun.star.drawing.LineShape">
       <g id="id3">
        <rect class="BoundingBox" stroke="none" fill="none" x="3133" y="15198" width="1450" height="4371"/>
        <path fill="none" stroke="rgb(0,0,0)" stroke-width="305" stroke-linejoin="round" stroke-linecap="round" d="M 3286,19415 L 4429,15351"/>
       </g>
      </g>
      <g class="com.sun.star.drawing.LineShape">
       <g id="id4">
        <rect class="BoundingBox" stroke="none" fill="none" x="4276" y="11642" width="2720" height="3863"/>
        <path fill="none" stroke="rgb(0,0,0)" stroke-width="305" stroke-linejoin="round" stroke-linecap="round" d="M 4429,15351 L 6842,11795"/>
       </g>
      </g>
      <g class="com.sun.star.drawing.LineShape">
       <g id="id5">
        <rect class="BoundingBox" stroke="none" fill="none" x="13293" y="8467" width="3609" height="2847"/>
        <path fill="none" stroke="rgb(0,0,0)" stroke-width="305" stroke-linejoin="round" stroke-linecap="round" d="M 13446,8620 L 16748,11160"/>
       </g>
      </g>
      <g class="com.sun.star.drawing.LineShape">
       <g id="id6">
        <rect class="BoundingBox" stroke="none" fill="none" x="17611" y="15071" width="688" height="6911"/>
        <path fill="none" stroke="rgb(0,0,0)" stroke-width="305" stroke-linejoin="round" stroke-linecap="round" d="M 17764,15224 L 18145,21828"/>
       </g>
      </g>
      <g class="com.sun.star.drawing.LineShape">
       <g id="id7">
        <rect class="BoundingBox" stroke="none" fill="none" x="5927" y="24850" width="7673" height="1196"/>
        <path fill="none" stroke="rgb(0,0,0)" stroke-width="305" stroke-linejoin="round" stroke-linecap="round" d="M 6080,25003 L 13446,25892"/>
       </g>
      </g>
      <g class="com.sun.star.drawing.LineShape">
       <g id="id8">
        <rect class="BoundingBox" stroke="none" fill="none" x="13293" y="21675" width="5006" height="4371"/>
        <path fill="none" stroke="rgb(0,0,0)" stroke-width="305" stroke-linejoin="round" stroke-linecap="round" d="M 18145,21828 L 13446,25892"/>
       </g>
      </g>
      <g class="com.sun.star.drawing.LineShape">
       <g id="id9">
        <rect class="BoundingBox" stroke="none" fill="none" x="13370" y="8671" width="2312" height="7646"/>
        <path fill="none" stroke="rgb(0,0,0)" stroke-width="152" stroke-linejoin="round" stroke-linecap="round" d="M 15605,16240 L 13446,8747"/>
       </g>
      </g>
      <g class="com.sun.star.drawing.LineShape">
       <g id="id10">
        <rect class="BoundingBox" stroke="none" fill="none" x="9052" y="15656" width="534" height="6757"/>
        <path fill="none" stroke="rgb(0,0,0)" stroke-width="152" stroke-linejoin="round" stroke-linecap="round" d="M 9509,15732 L 9128,22336"/>
       </g>
      </g>
      <g class="com.sun.star.drawing.LineShape">
       <g id="id11">
        <rect class="BoundingBox" stroke="none" fill="none" x="9052" y="22260" width="4471" height="3582"/>
        <path fill="none" stroke="rgb(0,0,0)" stroke-width="152" stroke-linejoin="round" stroke-linecap="round" d="M 9128,22336 L 13446,25765"/>
       </g>
      </g>
      <g class="com.sun.star.drawing.LineShape">
       <g id="id12">
        <rect class="BoundingBox" stroke="none" fill="none" x="5369" y="15402" width="4217" height="5233"/>
        <path fill="none" stroke="rgb(0,0,0)" stroke-width="152" stroke-linejoin="round" stroke-linecap="round" d="M 5445,20558 L 9509,15478"/>
       </g>
      </g>
      <g class="com.sun.star.drawing.LineShape">
       <g id="id13">
        <rect class="BoundingBox" stroke="none" fill="none" x="15402" y="19212" width="2693" height="2566"/>
        <path fill="none" stroke="rgb(0,0,0)" stroke-width="152" stroke-linejoin="round" stroke-linecap="round" d="M 15478,19288 L 18018,21701"/>
       </g>
      </g>
      <g class="com.sun.star.drawing.LineShape">
       <g id="id14">
        <rect class="BoundingBox" stroke="none" fill="none" x="8671" y="8671" width="4725" height="2566"/>
        <path fill="none" stroke="rgb(0,0,0)" stroke-width="152" stroke-linejoin="round" stroke-linecap="round" d="M 8747,11160 L 13319,8747"/>
       </g>
      </g>
      <g class="com.sun.star.drawing.LineShape">
       <g id="id15">
        <rect class="BoundingBox" stroke="none" fill="none" x="9382" y="15478" width="1906" height="2033"/>
        <path fill="none" stroke="rgb(0,0,0)" stroke-width="254" stroke-linejoin="round" stroke-linecap="round" d="M 11160,17383 L 9509,15605"/>
       </g>
      </g>
      <g class="com.sun.star.drawing.LineShape">
       <g id="id16">
        <rect class="BoundingBox" stroke="none" fill="none" x="15478" y="15097" width="2414" height="1398"/>
        <path fill="none" stroke="rgb(0,0,0)" stroke-width="254" stroke-linejoin="round" stroke-linecap="round" d="M 15605,16367 L 17764,15224"/>
       </g>
      </g>
      <g class="com.sun.star.drawing.LineShape">
       <g id="id17">
        <rect class="BoundingBox" stroke="none" fill="none" x="11058" y="17281" width="2491" height="8587"/>
        <path fill="none" stroke="rgb(0,0,0)" stroke-width="203" stroke-linejoin="round" stroke-linecap="round" d="M 11160,17383 L 13446,25765"/>
       </g>
      </g>
      <g class="com.sun.star.drawing.LineShape">
       <g id="id18">
        <rect class="BoundingBox" stroke="none" fill="none" x="9483" y="8467" width="4117" height="1323"/>
        <path fill="none" stroke="rgb(0,0,0)" stroke-width="305" stroke-linejoin="round" stroke-linecap="round" d="M 9636,9636 L 13446,8620"/>
       </g>
      </g>
      <g class="com.sun.star.drawing.LineShape">
       <g id="id19">
        <rect class="BoundingBox" stroke="none" fill="none" x="8671" y="11084" width="915" height="4598"/>
        <path fill="none" stroke="rgb(0,0,0)" stroke-width="152" stroke-linejoin="round" stroke-linecap="round" d="M 9509,15605 L 8747,11160"/>
       </g>
      </g>
      <g class="com.sun.star.drawing.LineShape">
       <g id="id20">
        <rect class="BoundingBox" stroke="none" fill="none" x="6105" y="15503" width="3507" height="9349"/>
        <path fill="none" stroke="rgb(0,0,0)" stroke-width="203" stroke-linejoin="round" stroke-linecap="round" d="M 6207,24749 L 9509,15605"/>
       </g>
      </g>
      <g class="com.sun.star.drawing.LineShape">
       <g id="id21">
        <rect class="BoundingBox" stroke="none" fill="none" x="9407" y="8772" width="4015" height="6936"/>
        <path fill="none" stroke="rgb(0,0,0)" stroke-width="203" stroke-linejoin="round" stroke-linecap="round" d="M 9509,15605 L 13319,8874"/>
       </g>
      </g>
      <g class="com.sun.star.drawing.LineShape">
       <g id="id22">
        <rect class="BoundingBox" stroke="none" fill="none" x="6766" y="11084" width="2058" height="788"/>
        <path fill="none" stroke="rgb(0,0,0)" stroke-width="152" stroke-linejoin="round" stroke-linecap="round" d="M 8747,11160 L 6842,11795"/>
       </g>
      </g>
      <g class="com.sun.star.drawing.LineShape">
       <g id="id23">
        <rect class="BoundingBox" stroke="none" fill="none" x="8671" y="9687" width="1042" height="1550"/>
        <path fill="none" stroke="rgb(0,0,0)" stroke-width="152" stroke-linejoin="round" stroke-linecap="round" d="M 8747,11160 L 9636,9763"/>
       </g>
      </g>
      <g class="com.sun.star.drawing.LineShape">
       <g id="id24">
        <rect class="BoundingBox" stroke="none" fill="none" x="6689" y="9483" width="3101" height="2466"/>
        <path fill="none" stroke="rgb(0,0,0)" stroke-width="305" stroke-linejoin="round" stroke-linecap="round" d="M 6842,11795 L 9636,9636"/>
       </g>
      </g>
      <g class="com.sun.star.drawing.LineShape">
       <g id="id25">
        <rect class="BoundingBox" stroke="none" fill="none" x="3133" y="19262" width="3101" height="5895"/>
        <path fill="none" stroke="rgb(0,0,0)" stroke-width="305" stroke-linejoin="round" stroke-linecap="round" d="M 6080,25003 L 3286,19415"/>
       </g>
      </g>
      <g class="com.sun.star.drawing.LineShape">
       <g id="id26">
        <rect class="BoundingBox" stroke="none" fill="none" x="4226" y="15275" width="407" height="3455"/>
        <path fill="none" stroke="rgb(0,0,0)" stroke-width="152" stroke-linejoin="round" stroke-linecap="round" d="M 4302,18653 L 4556,15351"/>
       </g>
      </g>
      <g class="com.sun.star.drawing.LineShape">
       <g id="id27">
        <rect class="BoundingBox" stroke="none" fill="none" x="3210" y="18577" width="1169" height="788"/>
        <path fill="none" stroke="rgb(0,0,0)" stroke-width="152" stroke-linejoin="round" stroke-linecap="round" d="M 4302,18653 L 3286,19288"/>
       </g>
      </g>
      <g class="com.sun.star.drawing.LineShape">
       <g id="id28">
        <rect class="BoundingBox" stroke="none" fill="none" x="5369" y="20482" width="788" height="4344"/>
        <path fill="none" stroke="rgb(0,0,0)" stroke-width="152" stroke-linejoin="round" stroke-linecap="round" d="M 6080,24749 L 5445,20558"/>
       </g>
      </g>
      <g class="com.sun.star.drawing.LineShape">
       <g id="id29">
        <rect class="BoundingBox" stroke="none" fill="none" x="4226" y="18577" width="1296" height="2058"/>
        <path fill="none" stroke="rgb(0,0,0)" stroke-width="152" stroke-linejoin="round" stroke-linecap="round" d="M 5445,20558 L 4302,18653"/>
       </g>
      </g>
      <g class="com.sun.star.drawing.LineShape">
       <g id="id30">
        <rect class="BoundingBox" stroke="none" fill="none" x="6132" y="22260" width="3073" height="2693"/>
        <path fill="none" stroke="rgb(0,0,0)" stroke-width="152" stroke-linejoin="round" stroke-linecap="round" d="M 6208,24876 L 9128,22336"/>
       </g>
      </g>
      <g class="com.sun.star.drawing.LineShape">
       <g id="id31">
        <rect class="BoundingBox" stroke="none" fill="none" x="11033" y="16240" width="4700" height="1271"/>
        <path fill="none" stroke="rgb(0,0,0)" stroke-width="254" stroke-linejoin="round" stroke-linecap="round" d="M 11160,17383 L 15605,16367"/>
       </g>
      </g>
      <g class="com.sun.star.drawing.LineShape">
       <g id="id32">
        <rect class="BoundingBox" stroke="none" fill="none" x="15402" y="16291" width="280" height="3074"/>
        <path fill="none" stroke="rgb(0,0,0)" stroke-width="152" stroke-linejoin="round" stroke-linecap="round" d="M 15605,16367 L 15478,19288"/>
       </g>
      </g>
      <g class="com.sun.star.drawing.LineShape">
       <g id="id33">
        <rect class="BoundingBox" stroke="none" fill="none" x="4226" y="11211" width="4471" height="7519"/>
        <path fill="none" stroke="rgb(0,0,0)" stroke-width="152" stroke-linejoin="round" stroke-linecap="round" d="M 4302,18653 L 8620,11287"/>
       </g>
      </g>
      <g class="com.sun.star.drawing.LineShape">
       <g id="id34">
        <rect class="BoundingBox" stroke="none" fill="none" x="13370" y="19212" width="2185" height="6630"/>
        <path fill="none" stroke="rgb(0,0,0)" stroke-width="152" stroke-linejoin="round" stroke-linecap="round" d="M 13446,25765 L 15478,19288"/>
       </g>
      </g>
      <g class="com.sun.star.drawing.LineShape">
       <g id="id35">
        <rect class="BoundingBox" stroke="none" fill="none" x="11084" y="17307" width="4471" height="2058"/>
        <path fill="none" stroke="rgb(0,0,0)" stroke-width="152" stroke-linejoin="round" stroke-linecap="round" d="M 15478,19288 L 11160,17383"/>
       </g>
      </g>
      <g class="com.sun.star.drawing.LineShape">
       <g id="id36">
        <rect class="BoundingBox" stroke="none" fill="none" x="16595" y="11007" width="1323" height="4371"/>
        <path fill="none" stroke="rgb(0,0,0)" stroke-width="305" stroke-linejoin="round" stroke-linecap="round" d="M 16748,11160 L 17764,15224"/>
       </g>
      </g>
     </g>
    </g>
   </g>
  </g>
 </g>
</svg>